<?xml version="1.0" encoding="utf-8"?>
<svg xmlns="http://www.w3.org/2000/svg" viewBox="9.0285 396.762 1005.943 230.476" width="1005.94px" height="230.476px" xmlns:bx="https://boxy-svg.com" preserveAspectRatio="none"><defs><bx:export><bx:file format="svg" path="Sem título.svg"/></bx:export></defs><path d="M 443.241 484.623 L 467.435 484.623 L 481.441 487.17 L 499.268 496.083 L 510.729 506.27 L 519.641 519.003 L 524.734 533.01 L 527.281 548.291 L 527.281 562.297 L 523.462 582.671 L 518.368 595.404 L 509.455 606.865 L 497.995 617.051 L 485.262 623.418 L 467.435 627.238 L 443.241 627.238 L 427.961 623.418 L 413.954 615.778 L 401.22 604.318 L 393.58 592.858 L 388.487 578.851 L 385.94 562.297 L 385.94 547.017 L 388.487 530.464 L 396.127 513.91 L 405.041 503.723 L 415.227 494.81 L 427.961 488.443 L 434.328 485.896 L 443.241 484.623 Z M 450.881 513.91 L 440.694 517.73 L 430.508 526.644 L 424.141 539.377 L 422.867 545.744 L 422.867 566.117 L 425.414 577.578 L 431.781 587.764 L 439.421 594.131 L 448.334 597.951 L 464.888 597.951 L 473.801 594.131 L 478.895 590.311 L 478.895 587.764 L 482.715 586.491 L 489.082 572.484 L 490.355 566.117 L 490.355 547.017 L 487.808 538.104 L 483.988 529.19 L 475.075 519.003 L 463.615 513.91 L 450.881 513.91 Z" style="fill: rgb(255, 255, 255);"/><path d="M 713.19 484.623 L 739.93 484.623 L 755.212 488.443 L 767.945 494.81 L 776.858 504.997 L 780.679 511.363 L 783.224 525.37 L 783.224 623.418 L 750.118 623.418 L 748.844 609.411 L 742.478 617.051 L 732.291 623.418 L 715.738 627.238 L 697.911 627.238 L 682.631 623.418 L 672.444 615.778 L 666.077 608.138 L 662.257 596.678 L 662.257 577.578 L 666.077 566.117 L 672.444 557.204 L 685.176 549.564 L 703.003 544.47 L 741.204 539.377 L 748.844 538.104 L 747.57 525.37 L 742.478 517.73 L 732.291 512.637 L 717.011 512.637 L 706.824 517.73 L 701.731 525.37 L 699.184 530.464 L 668.623 530.464 L 667.349 529.19 L 668.623 519.003 L 676.263 503.723 L 688.997 492.263 L 704.277 485.896 L 713.19 484.623 Z M 743.751 561.024 L 717.011 564.844 L 705.551 568.664 L 697.911 577.578 L 696.637 587.764 L 700.457 595.404 L 705.551 599.225 L 709.371 600.498 L 727.198 600.498 L 737.385 595.404 L 745.025 586.491 L 748.844 573.757 L 748.844 561.024 L 743.751 561.024 Z" style="fill: rgb(255, 255, 255);"/><path d="M 941.121 484.623 L 964.041 484.623 L 978.048 488.443 L 990.781 494.81 L 1002.24 506.27 L 1009.88 520.277 L 1012.43 527.917 L 1013.7 536.83 L 1014.97 563.571 L 1013.7 564.844 L 922.021 564.844 L 925.841 581.398 L 933.481 591.584 L 941.121 596.678 L 948.761 599.225 L 960.221 599.225 L 970.407 595.404 L 975.501 589.038 L 978.048 583.944 L 1009.88 583.944 L 1011.15 586.491 L 1006.06 599.225 L 995.872 613.231 L 984.415 620.871 L 970.407 625.965 L 965.315 627.238 L 941.121 627.238 L 922.021 622.145 L 909.286 613.231 L 900.373 604.318 L 892.733 592.858 L 887.64 576.304 L 886.367 566.117 L 886.367 548.291 L 888.914 530.464 L 894.007 517.73 L 902.921 504.997 L 911.834 496.083 L 919.474 490.99 L 932.208 485.896 L 941.121 484.623 Z M 946.214 512.637 L 933.481 519.003 L 928.387 525.37 L 923.294 538.104 L 923.294 541.924 L 980.594 541.924 L 978.048 529.19 L 970.407 519.003 L 962.767 513.91 L 958.948 512.637 L 946.214 512.637 Z" style="fill: rgb(255, 255, 255);"/><path d="M 309.54 484.623 L 329.914 484.623 L 346.467 489.716 L 356.654 498.63 L 363.021 506.27 L 366.841 520.277 L 368.114 529.19 L 368.114 622.145 L 366.841 623.418 L 332.46 623.418 L 331.187 606.865 L 329.914 530.464 L 323.547 520.277 L 314.633 516.457 L 303.173 516.457 L 292.986 520.277 L 286.62 526.644 L 281.526 536.83 L 280.253 622.145 L 278.98 623.418 L 244.599 623.418 L 243.326 622.145 L 243.326 487.17 L 278.98 487.17 L 278.98 501.177 L 291.713 490.99 L 303.173 485.896 L 309.54 484.623 Z" style="fill: rgb(255, 255, 255);"/><path d="M 158.01 484.623 L 179.658 484.623 L 191.118 487.17 L 202.578 494.81 L 211.492 504.997 L 215.312 515.183 L 216.585 522.823 L 216.585 623.418 L 180.931 623.418 L 179.658 535.557 L 175.838 524.097 L 168.198 517.73 L 163.104 516.457 L 151.644 516.457 L 142.731 520.277 L 135.091 526.644 L 131.271 533.01 L 129.997 539.377 L 128.724 623.418 L 93.07 623.418 L 91.797 489.716 L 93.07 487.17 L 126.177 487.17 L 127.451 488.443 L 128.724 501.177 L 141.457 490.99 L 151.644 485.896 L 158.01 484.623 Z" style="fill: rgb(255, 255, 255);"/><path d="M 659.709 487.17 L 664.803 487.17 L 663.53 496.083 L 654.617 519.004 L 644.43 545.744 L 632.969 578.851 L 618.963 615.778 L 616.416 623.418 L 574.396 623.418 L 569.301 611.958 L 542.561 533.011 L 529.828 496.083 L 528.555 488.443 L 564.209 488.443 L 568.029 497.357 L 574.396 519.004 L 578.216 529.191 L 588.402 562.298 L 594.769 582.671 L 594.769 587.765 L 597.315 587.765 L 599.863 576.305 L 613.868 531.737 L 627.876 489.717 L 629.15 488.443 L 659.709 487.17 Z" style="fill: rgb(255, 255, 255);"/><path d="M 873.632 484.623 L 883.82 484.623 L 883.82 521.55 L 868.54 520.277 L 857.079 524.097 L 848.166 531.737 L 843.073 540.65 L 841.799 545.744 L 840.526 622.145 L 839.252 623.418 L 804.872 623.418 L 804.872 489.716 L 806.145 488.443 L 836.705 488.443 L 837.978 508.817 L 849.439 496.083 L 859.626 488.443 L 864.719 485.896 L 873.632 484.623 Z" style="fill: rgb(255, 255, 255);"/><path d="M 25.583 487.17 L 62.509 487.17 L 63.783 488.443 L 63.783 623.418 L 26.856 623.418 L 25.583 622.145 L 25.583 487.17 Z" style="fill: rgb(255, 255, 255);"/><path d="M 35.77 396.762 L 53.596 396.762 L 66.33 403.129 L 75.243 413.316 L 79.063 420.956 L 80.337 436.236 L 75.243 450.243 L 67.602 459.156 L 56.143 465.523 L 51.05 466.796 L 38.316 466.796 L 26.856 462.976 L 16.669 454.063 L 11.576 447.696 L 9.029 440.056 L 9.029 424.776 L 12.849 413.316 L 21.763 403.129 L 30.676 398.035 L 35.77 396.762 Z" fill="#048AFE" style=""/></svg>