<?xml version="1.0" encoding="utf-8"?>
<svg xmlns="http://www.w3.org/2000/svg" viewBox="1.612 210.503 1020.778 602.994" width="1020.78px" height="602.994px" xmlns:bx="https://boxy-svg.com" preserveAspectRatio="none"><defs><bx:export><bx:file format="svg" path="Sem título.svg"/></bx:export></defs><path d="M 845.393 397.782 L 888.611 397.782 L 919.481 403.956 L 942.119 412.188 L 962.7 424.536 L 983.28 443.058 L 999.747 463.638 L 1012.09 494.508 L 1018.27 521.262 L 1020.32 535.669 L 1022.39 578.886 L 1022.39 811.44 L 1020.32 813.497 L 927.713 813.497 L 925.656 811.44 L 923.597 587.119 L 921.539 558.306 L 915.365 533.61 L 905.076 515.088 L 888.611 498.624 L 872.147 490.393 L 855.683 486.276 L 826.871 486.276 L 802.176 492.45 L 779.537 506.856 L 765.131 523.319 L 754.841 543.9 L 750.726 564.48 L 748.667 811.44 L 746.609 813.497 L 654 813.497 L 649.883 811.44 L 649.883 408.071 L 654 406.014 L 738.378 408.071 L 744.552 416.304 L 744.552 455.406 L 761.015 434.826 L 783.654 416.304 L 806.291 406.014 L 830.987 399.84 L 845.393 397.782 Z" style="fill: rgb(255, 255, 255);" transform="matrix(1, 0, 0, 1, 1.4210854715202004e-14, 0)"/><path d="M 411.153 397.782 L 454.371 397.782 L 495.532 406.014 L 528.46 422.478 L 553.155 445.116 L 569.619 471.869 L 579.91 498.624 L 586.084 537.726 L 588.141 813.497 L 491.416 813.497 L 489.358 811.44 L 487.299 572.712 L 483.184 548.016 L 474.951 525.378 L 466.719 513.03 L 450.255 498.624 L 435.849 490.393 L 419.386 486.276 L 388.516 486.276 L 365.877 492.45 L 343.24 506.856 L 326.775 527.436 L 318.543 545.958 L 314.427 562.421 L 312.369 811.44 L 310.312 813.497 L 217.701 813.497 L 215.643 811.44 L 213.586 545.958 L 213.586 408.071 L 217.701 406.014 L 304.138 408.071 L 310.312 414.245 L 312.369 453.348 L 330.891 432.769 L 345.297 420.419 L 374.11 406.014 L 396.747 399.84 L 411.153 397.782 Z" style="fill: rgb(255, 255, 255);" transform="matrix(1, 0, 0, 1, 1.4210854715202004e-14, 0)"/><path d="M 24.249 408.071 L 123.034 408.071 L 125.091 410.13 L 125.091 813.497 L 26.308 813.497 L 24.249 811.439 L 24.249 408.071 Z" style="fill: rgb(255, 255, 255);" transform="matrix(1, 0, 0, 1, 1.4210854715202004e-14, 0)"/><path d="M 63.351 210.503 L 83.932 210.503 L 106.569 216.677 L 125.091 229.024 L 135.382 239.315 L 145.671 261.953 L 147.73 272.242 L 147.73 290.765 L 143.614 309.287 L 135.382 325.75 L 131.656 330.438 L 127.149 333.983 L 116.86 342.215 L 102.454 350.446 L 83.932 354.563 L 63.351 354.563 L 42.771 348.389 L 26.308 336.04 L 9.843 317.518 L 3.669 301.055 L 1.612 276.359 L 7.786 251.663 L 20.134 233.14 L 34.539 220.792 L 53.062 212.561 L 63.351 210.503 Z" fill="#1981FA" style="" transform="matrix(1, 0, 0, 1, 1.4210854715202004e-14, 0)"/></svg>