<?xml version="1.0" encoding="utf-8"?>
<svg xmlns="http://www.w3.org/2000/svg" viewBox="9.0285 396.762 1005.943 230.476" width="1005.94px" height="230.476px" xmlns:bx="https://boxy-svg.com" preserveAspectRatio="none"><defs><bx:export><bx:file format="svg" path="Sem título.svg"/></bx:export></defs><g transform="matrix(1, 0, 0, 1, -6.998499870300279, 37.5)"><path d="M 450.239 447.123 L 474.433 447.123 L 488.439 449.67 L 506.266 458.583 L 517.727 468.77 L 526.64 481.503 L 531.733 495.51 L 534.28 510.791 L 534.28 524.797 L 530.46 545.171 L 525.367 557.904 L 516.453 569.365 L 504.993 579.551 L 492.26 585.918 L 474.433 589.738 L 450.239 589.738 L 434.959 585.918 L 420.952 578.278 L 408.218 566.818 L 400.578 555.358 L 395.485 541.351 L 392.938 524.797 L 392.938 509.517 L 395.485 492.964 L 403.125 476.41 L 412.039 466.223 L 422.225 457.31 L 434.959 450.943 L 441.326 448.396 L 450.239 447.123 Z M 457.879 476.41 L 447.692 480.23 L 437.506 489.144 L 431.139 501.877 L 429.865 508.244 L 429.865 528.617 L 432.412 540.078 L 438.779 550.264 L 446.419 556.631 L 455.332 560.451 L 471.886 560.451 L 480.799 556.631 L 485.893 552.811 L 485.893 550.264 L 489.713 548.991 L 496.08 534.984 L 497.353 528.617 L 497.353 509.517 L 494.806 500.604 L 490.986 491.69 L 482.073 481.503 L 470.613 476.41 L 457.879 476.41 Z" fill="#111312" style=""/><path d="M 720.189 447.123 L 746.929 447.123 L 762.21 450.943 L 774.943 457.31 L 783.857 467.497 L 787.677 473.863 L 790.223 487.87 L 790.223 585.918 L 757.116 585.918 L 755.843 571.911 L 749.476 579.551 L 739.289 585.918 L 722.736 589.738 L 704.909 589.738 L 689.629 585.918 L 679.442 578.278 L 673.075 570.638 L 669.255 559.178 L 669.255 540.078 L 673.075 528.617 L 679.442 519.704 L 692.175 512.064 L 710.002 506.97 L 748.203 501.877 L 755.843 500.604 L 754.569 487.87 L 749.476 480.23 L 739.289 475.137 L 724.009 475.137 L 713.822 480.23 L 708.729 487.87 L 706.182 492.964 L 675.622 492.964 L 674.348 491.69 L 675.622 481.503 L 683.262 466.223 L 695.995 454.763 L 711.276 448.396 L 720.189 447.123 Z M 750.749 523.524 L 724.009 527.344 L 712.549 531.164 L 704.909 540.078 L 703.635 550.264 L 707.455 557.904 L 712.549 561.725 L 716.369 562.998 L 734.196 562.998 L 744.383 557.904 L 752.023 548.991 L 755.843 536.257 L 755.843 523.524 L 750.749 523.524 Z" fill="#111413" style=""/><path d="M 948.119 447.123 L 971.039 447.123 L 985.046 450.943 L 997.78 457.31 L 1009.24 468.77 L 1016.88 482.777 L 1019.43 490.417 L 1020.7 499.33 L 1021.97 526.071 L 1020.7 527.344 L 929.019 527.344 L 932.839 543.898 L 940.479 554.084 L 948.119 559.178 L 955.759 561.725 L 967.219 561.725 L 977.406 557.904 L 982.499 551.538 L 985.046 546.444 L 1016.88 546.444 L 1018.15 548.991 L 1013.06 561.725 L 1002.87 575.731 L 991.413 583.371 L 977.406 588.465 L 972.313 589.738 L 948.119 589.738 L 929.019 584.645 L 916.285 575.731 L 907.372 566.818 L 899.732 555.358 L 894.638 538.804 L 893.365 528.617 L 893.365 510.791 L 895.912 492.964 L 901.005 480.23 L 909.919 467.497 L 918.832 458.583 L 926.472 453.49 L 939.206 448.396 L 948.119 447.123 Z M 953.212 475.137 L 940.479 481.503 L 935.386 487.87 L 930.292 500.604 L 930.292 504.424 L 987.593 504.424 L 985.046 491.69 L 977.406 481.503 L 969.766 476.41 L 965.946 475.137 L 953.212 475.137 Z" fill="#111413" style=""/><path d="M 316.538 447.123 L 336.912 447.123 L 353.465 452.216 L 363.652 461.13 L 370.019 468.77 L 373.839 482.777 L 375.112 491.69 L 375.112 584.645 L 373.839 585.918 L 339.458 585.918 L 338.185 569.365 L 336.912 492.964 L 330.545 482.777 L 321.631 478.957 L 310.171 478.957 L 299.984 482.777 L 293.618 489.144 L 288.524 499.33 L 287.251 584.645 L 285.978 585.918 L 251.597 585.918 L 250.324 584.645 L 250.324 449.67 L 285.978 449.67 L 285.978 463.677 L 298.711 453.49 L 310.171 448.396 L 316.538 447.123 Z" fill="#111616" style=""/><path d="M 165.009 447.123 L 186.656 447.123 L 198.116 449.67 L 209.576 457.31 L 218.49 467.497 L 222.31 477.683 L 223.583 485.323 L 223.583 585.918 L 187.929 585.918 L 186.656 498.057 L 182.836 486.597 L 175.196 480.23 L 170.102 478.957 L 158.642 478.957 L 149.729 482.777 L 142.089 489.144 L 138.269 495.51 L 136.995 501.877 L 135.722 585.918 L 100.068 585.918 L 98.795 452.216 L 100.068 449.67 L 133.175 449.67 L 134.449 450.943 L 135.722 463.677 L 148.455 453.49 L 158.642 448.396 L 165.009 447.123 Z" fill="#0F1312" style=""/><path d="M 666.708 449.67 L 671.801 449.67 L 670.528 458.583 L 661.615 481.504 L 651.428 508.244 L 639.968 541.351 L 625.961 578.278 L 623.414 585.918 L 581.394 585.918 L 576.3 574.458 L 549.56 495.511 L 536.826 458.583 L 535.553 450.943 L 571.207 450.943 L 575.027 459.857 L 581.394 481.504 L 585.214 491.691 L 595.4 524.798 L 601.767 545.171 L 601.767 550.265 L 604.314 550.265 L 606.861 538.805 L 620.867 494.237 L 634.874 452.217 L 636.148 450.943 L 666.708 449.67 Z" fill="#121514" style=""/><path d="M 880.631 447.123 L 890.818 447.123 L 890.818 484.05 L 875.538 482.777 L 864.077 486.597 L 855.164 494.237 L 850.071 503.15 L 848.797 508.244 L 847.524 584.645 L 846.251 585.918 L 811.87 585.918 L 811.87 452.216 L 813.143 450.943 L 843.704 450.943 L 844.977 471.317 L 856.437 458.583 L 866.624 450.943 L 871.718 448.396 L 880.631 447.123 Z" fill="#13191B" style=""/><path d="M 32.581 449.67 L 69.508 449.67 L 70.781 450.943 L 70.781 585.918 L 33.854 585.918 L 32.581 584.645 L 32.581 449.67 Z" fill="#0F1313" style=""/><path d="M 42.768 359.262 L 60.594 359.262 L 73.328 365.629 L 82.241 375.816 L 86.061 383.456 L 87.335 398.736 L 82.241 412.743 L 74.601 421.656 L 63.141 428.023 L 58.048 429.296 L 45.314 429.296 L 33.854 425.476 L 23.667 416.563 L 18.574 410.196 L 16.027 402.556 L 16.027 387.276 L 19.847 375.816 L 28.761 365.629 L 37.674 360.535 L 42.768 359.262 Z" fill="#048AFE" style=""/></g></svg>