<?xml version="1.0" encoding="UTF-8"?>
<svg version="1.1" viewBox="0 0 1024 1024" width="1024" height="1024" xmlns="http://www.w3.org/2000/svg">
<path transform="translate(0)" d="m0 0h1024v1024h-1024z" fill="#FEFEFE"/>
<path transform="translate(488,390)" d="m0 0h11l15 3 14 7 9 9 7 14 3 16v109l-1 1h-41l-1-1-1-98-3-10-7-8-10-4h-13l-10 4-4 2-7 14-1 4-1 96-1 1h-41l-1-1v-152l1-1h39l1 1 1 17 9-10 11-7 10-4z" fill="#090C0C"/>
<path transform="translate(653,391)" d="m0 0h23l11 3 12 6 9 9 7 13 3 15v111l-1 1h-40l-1-1-1-96-2-9-5-8-5-4-9-3h-12l-10 4-5 4-5 8-3 12-1 93h-41l-1-1v-152l1-1h39v19h2l2-4 9-9 10-6 9-3z" fill="#090B0A"/>
<path transform="translate(328,395)" d="m0 0h41v154h-41l-1-1v-152z" fill="#090B0A"/>
<path transform="translate(462,617)" d="m0 0h13l10 3 9 6 6 7 4 9 1 5v17l-3 10-6 9-7 6-9 4-4 1h-15l-11-4-10-9-6-12-1-5v-18l4-11 6-8 8-6z" fill="#090B0A"/>
<path transform="translate(341,296)" d="m0 0h17l12 5 9 8 6 10 2 8v13l-4 11-7 9-10 7-9 3h-16l-12-5-10-9-6-11-1-4v-16l4-11 9-10 5-4z" fill="#0E7CFF"/>
<path transform="translate(603,617)" d="m0 0h18l9 3 7 6 4 8 1 6 1 52h-16l-1-8-7 6-11 4h-12l-10-4-7-8-2-4v-11l4-7 7-6 11-4 19-3 6-2v-9l-4-5-4-1h-9l-6 3-3 4-1 3h-15l1-9 6-8 10-5z" fill="#090B0A"/>
<path transform="translate(725,617)" d="m0 0h16l10 4 8 7 5 9 2 7v15h-34l-18-1 2 12 4 6 7 4h13l6-4 4-6h15l-1 6-6 9-9 6-9 3h-13l-10-3-8-6-6-7-4-11-1-6v-12l3-12 6-9 8-7z" fill="#090B0B"/>
<path transform="translate(311,617)" d="m0 0h13l10 4 6 7 2 5 1 6v53h-16l-1-51-3-6-4-3-9-1-7 3-5 5-2 4-1 49h-16v-73h16v8l1-1 7-6z" fill="#090B0A"/>
<path transform="translate(389,617)" d="m0 0h13l10 4 7 8 3 10v53h-16l-1-51-3-6-4-3-9-1-8 3-5 6-1 3-1 49h-16v-73h15l1 8 8-7z" fill="#090B0A"/>
<path transform="translate(507,619)" d="m0 0h16l14 40 4 12 2-3 16-47 1-2h16l-3 11-16 43-7 19h-17l-4-9-18-51-4-11z" fill="#090B0B"/>
<path transform="translate(245,591)" d="m0 0h17v101h-17z" fill="#090B0A"/>
<path transform="translate(465,630)" d="m0 0h8l7 3 5 5 4 9v17l-4 10-6 5-5 2h-10l-8-4-4-5-3-8v-17l4-9 7-6z" fill="#FEFEFE"/>
<path transform="translate(686,618)" d="m0 0h10v14l-12 2-8 6-3 8-1 44h-16v-73h16l1 9 5-6z" fill="#090B0A"/>
<path transform="translate(625,655)" d="m0 0h1v11l-3 8-7 6-5 2h-9l-6-3-3-4v-7l5-6 10-3 15-3z" fill="#FEFEFE"/>
<path transform="translate(728,629)" d="m0 0h9l6 3 5 6 3 10h-37l1-7 4-6 6-5z" fill="#FEFEFE"/>
</svg>
