<?xml version="1.0" encoding="utf-8"?>
<svg xmlns="http://www.w3.org/2000/svg" viewBox="70.8425 423.3123 865.5699 178.6229" width="865.57px" height="178.623px" xmlns:bx="https://boxy-svg.com" preserveAspectRatio="none"><defs><bx:export><bx:file format="svg" path="Sem título.svg"/></bx:export></defs><g fill="None" fill-opacity="0.0" stroke="#090909" stroke-opacity="1.00" stroke-width="0.3" transform="matrix(0.9999999999999999, 0, 0, 0.9999999999999999, -1.4210854715202004e-14, 0)"><path d=" M 812.00 425.00 C 794.26 421.67 788.18 447.03 806.00 451.00 C 823.82 454.97 828.93 428.18 812.00 425.00 Z"/></g><g fill="None" fill-opacity="0.0" stroke="#0A0A0A" stroke-opacity="1.00" stroke-width="0.3" transform="matrix(0.9999999999999999, 0, 0, 0.9999999999999999, -1.4210854715202004e-14, 0)"><path d=" M 71.00 496.00 C 71.00 498.33 71.00 500.67 71.00 503.00 C 71.00 525.31 81.33 541.10 98.25 555.75 C 115.16 570.41 141.83 569.00 164.00 569.00 C 172.64 568.16 182.66 568.00 192.00 568.00 C 197.33 568.00 202.67 568.00 208.00 568.00 C 232.81 568.00 261.52 569.20 278.75 550.75 C 295.99 532.31 304.89 509.31 299.98 486.02 C 295.06 462.74 284.96 445.37 263.08 434.92 C 241.19 424.48 204.62 431.21 180.00 430.00 C 155.38 428.79 121.08 426.31 101.25 439.25 C 81.41 452.18 71.00 473.45 71.00 496.00 M 89.00 502.00 C 88.75 499.43 88.69 496.54 89.00 494.00 C 89.72 457.84 126.63 440.95 159.00 446.00 C 191.37 451.05 239.86 435.48 265.25 457.75 C 290.63 480.03 290.24 518.41 264.25 540.25 C 238.26 562.08 191.06 547.12 158.00 552.00 C 124.94 556.88 89.00 538.71 89.00 502.00 Z"/></g><g fill="None" fill-opacity="0.0" stroke="#0B0C0B" stroke-opacity="1.00" stroke-width="0.3" transform="matrix(0.9999999999999999, 0, 0, 0.9999999999999999, -1.4210854715202004e-14, 0)"><path d=" M 416.00 430.00 C 382.00 430.00 348.00 430.00 314.00 430.00 C 314.00 437.33 314.00 444.67 314.00 452.00 C 326.67 452.00 339.33 452.00 352.00 452.00 C 352.00 487.67 352.00 523.33 352.00 559.00 C 360.67 559.00 369.33 559.00 378.00 559.00 C 378.00 523.33 378.00 487.67 378.00 452.00 C 390.67 452.00 403.33 452.00 416.00 452.00 C 416.00 444.67 416.00 437.33 416.00 430.00 Z"/></g><g fill="None" fill-opacity="0.0" stroke="#F8F8F8" stroke-opacity="1.00" stroke-width="0.3" transform="matrix(0.9999999999999999, 0, 0, 0.9999999999999999, -1.4210854715202004e-14, 0)"><path d=" M 89.00 494.00 C 88.95 496.66 89.00 499.34 89.00 502.00 C 89.00 538.71 124.94 556.88 158.00 552.00 C 191.06 547.12 238.26 562.08 264.25 540.25 C 290.24 518.41 290.63 480.03 265.25 457.75 C 239.86 435.48 191.37 451.05 159.00 446.00 C 126.63 440.95 89.72 457.84 89.00 494.00 M 145.00 458.00 C 179.31 459.86 193.87 505.04 169.75 528.75 C 145.64 552.46 101.21 537.45 100.00 502.00 C 99.64 499.49 99.60 497.48 100.00 495.00 C 100.95 475.90 117.74 458.74 137.00 458.00 C 139.81 457.60 142.23 457.55 145.00 458.00 Z"/></g><g fill="None" fill-opacity="0.0" stroke="#878786" stroke-opacity="1.00" stroke-width="0.3" transform="matrix(0.9999999999999999, 0, 0, 0.9999999999999999, -1.4210854715202004e-14, 0)"><path d=" M 137.00 458.00 C 139.63 457.90 142.37 457.86 145.00 458.00 C 142.23 457.55 139.81 457.60 137.00 458.00 Z"/></g><g fill="None" fill-opacity="0.0" stroke="#0B0B0B" stroke-opacity="1.00" stroke-width="0.3" transform="matrix(0.9999999999999999, 0, 0, 0.9999999999999999, -1.4210854715202004e-14, 0)"><path d=" M 100.00 495.00 C 99.89 497.30 99.92 499.69 100.00 502.00 C 101.21 537.45 145.64 552.46 169.75 528.75 C 193.87 505.04 179.31 459.86 145.00 458.00 C 142.37 457.86 139.63 457.90 137.00 458.00 C 117.74 458.74 100.95 475.90 100.00 495.00 Z"/></g><g fill="None" fill-opacity="0.0" stroke="#747576" stroke-opacity="1.00" stroke-width="0.3" transform="matrix(0.9999999999999999, 0, 0, 0.9999999999999999, -1.4210854715202004e-14, 0)"><path d=" M 453.00 461.00 C 455.65 460.95 458.35 460.90 461.00 461.00 C 458.32 460.62 455.71 460.67 453.00 461.00 Z"/></g><g fill="None" fill-opacity="0.0" stroke="#0A0A0A" stroke-opacity="1.00" stroke-width="0.3" transform="matrix(0.9999999999999999, 0, 0, 0.9999999999999999, -1.4210854715202004e-14, 0)"><path d=" M 594.00 473.00 C 576.67 454.49 545.15 456.14 528.92 474.92 C 512.68 493.70 512.80 525.45 529.25 543.75 C 545.70 562.06 578.13 563.80 593.00 544.00 C 596.52 555.89 590.77 572.44 578.69 577.69 C 566.62 582.95 549.01 581.08 545.00 567.00 C 537.00 567.00 529.00 567.00 521.00 567.00 C 522.31 593.65 552.96 605.65 576.93 600.93 C 600.89 596.20 619.29 578.88 618.00 552.00 C 616.71 525.12 618.97 489.66 618.00 462.00 C 610.00 462.00 602.00 462.00 594.00 462.00 C 594.00 465.67 594.00 469.33 594.00 473.00 M 573.00 481.00 C 607.04 486.53 596.99 543.70 563.00 537.00 C 529.01 530.30 539.22 475.52 573.00 481.00 Z"/></g><g fill="None" fill-opacity="0.0" stroke="#0A0A0A" stroke-opacity="1.00" stroke-width="0.3" transform="matrix(0.9999999999999999, 0, 0, 0.9999999999999999, -1.4210854715202004e-14, 0)"><path d=" M 709.00 473.00 C 691.78 454.18 660.26 456.33 643.92 474.92 C 627.58 493.51 627.73 525.53 644.25 543.75 C 660.77 561.98 693.10 563.63 708.00 544.00 C 711.42 555.81 705.66 572.42 693.69 577.69 C 681.73 582.97 663.95 580.94 660.00 567.00 C 652.00 567.00 644.00 567.00 636.00 567.00 C 637.82 593.34 667.88 605.50 691.78 600.78 C 715.68 596.05 734.32 579.03 733.00 552.00 C 731.68 524.97 733.99 489.77 733.00 462.00 C 725.00 462.00 717.00 462.00 709.00 462.00 C 709.00 465.67 709.00 469.33 709.00 473.00 M 686.00 481.00 C 720.09 484.45 714.34 540.38 680.00 537.00 C 645.66 533.62 651.18 477.48 686.00 481.00 Z"/></g><g fill="None" fill-opacity="0.0" stroke="#7F7F7F" stroke-opacity="1.00" stroke-width="0.3" transform="matrix(0.9999999999999999, 0, 0, 0.9999999999999999, -1.4210854715202004e-14, 0)"><path d=" M 883.00 461.00 C 885.00 460.97 887.00 460.97 889.00 461.00 C 887.15 460.81 884.91 460.81 883.00 461.00 Z"/></g><g fill="None" fill-opacity="0.0" stroke="#0A0A0A" stroke-opacity="1.00" stroke-width="0.3" transform="matrix(0.9999999999999999, 0, 0, 0.9999999999999999, -1.4210854715202004e-14, 0)"><path d=" M 461.00 461.00 C 458.35 460.90 455.65 460.95 453.00 461.00 C 414.39 461.77 394.25 507.53 413.70 538.30 C 433.15 569.07 479.86 569.14 499.25 538.25 C 518.63 507.35 499.62 462.47 461.00 461.00 M 464.00 482.00 C 496.56 488.74 484.36 548.65 450.78 539.22 C 417.20 529.79 428.21 474.59 464.00 482.00 Z"/></g><g fill="None" fill-opacity="0.0" stroke="#0A0A0A" stroke-opacity="1.00" stroke-width="0.3" transform="matrix(0.9999999999999999, 0, 0, 0.9999999999999999, -1.4210854715202004e-14, 0)"><path d=" M 889.00 461.00 C 887.00 460.97 885.00 460.97 883.00 461.00 C 844.51 461.52 823.25 506.61 842.23 537.77 C 861.21 568.93 908.67 569.68 928.70 538.70 C 948.72 507.71 927.75 461.53 889.00 461.00 M 893.00 482.00 C 926.39 487.98 912.52 550.33 878.93 539.07 C 845.34 527.82 857.87 475.70 893.00 482.00 Z"/></g><g fill="None" fill-opacity="0.0" stroke="#F7F7F8" stroke-opacity="1.00" stroke-width="0.3" transform="matrix(0.9999999999999999, 0, 0, 0.9999999999999999, -1.4210854715202004e-14, 0)"><path d=" M 573.00 481.00 C 539.22 475.52 529.01 530.30 563.00 537.00 C 596.99 543.70 607.04 486.53 573.00 481.00 Z"/></g><g fill="None" fill-opacity="0.0" stroke="#F8F7F8" stroke-opacity="1.00" stroke-width="0.3" transform="matrix(0.9999999999999999, 0, 0, 0.9999999999999999, -1.4210854715202004e-14, 0)"><path d=" M 686.00 481.00 C 651.18 477.48 645.66 533.62 680.00 537.00 C 714.34 540.38 720.09 484.45 686.00 481.00 Z"/></g><g fill="None" fill-opacity="0.0" stroke="#F8F8F8" stroke-opacity="1.00" stroke-width="0.3" transform="matrix(0.9999999999999999, 0, 0, 0.9999999999999999, -1.4210854715202004e-14, 0)"><path d=" M 464.00 482.00 C 428.21 474.59 417.20 529.79 450.78 539.22 C 484.36 548.65 496.56 488.74 464.00 482.00 Z"/></g><g fill="None" fill-opacity="0.0" stroke="#F8F8F8" stroke-opacity="1.00" stroke-width="0.3" transform="matrix(0.9999999999999999, 0, 0, 0.9999999999999999, -1.4210854715202004e-14, 0)"><path d=" M 893.00 482.00 C 857.87 475.70 845.34 527.82 878.93 539.07 C 912.52 550.33 926.39 487.98 893.00 482.00 Z"/></g><g fill="None" fill-opacity="0.0" stroke="#888788" stroke-opacity="1.00" stroke-width="0.3" transform="matrix(0.9999999999999999, 0, 0, 0.9999999999999999, -1.4210854715202004e-14, 0)"><path d=" M 89.00 502.00 C 89.00 499.34 88.95 496.66 89.00 494.00 C 88.69 496.54 88.75 499.43 89.00 502.00 Z"/></g><g fill="None" fill-opacity="0.0" stroke="#848484" stroke-opacity="1.00" stroke-width="0.3" transform="matrix(0.9999999999999999, 0, 0, 0.9999999999999999, -1.4210854715202004e-14, 0)"><path d=" M 100.00 502.00 C 99.92 499.69 99.89 497.30 100.00 495.00 C 99.60 497.48 99.64 499.49 100.00 502.00 Z"/></g><g fill="None" fill-opacity="0.0" stroke="#959595" stroke-opacity="1.00" stroke-width="0.3" transform="matrix(0.9999999999999999, 0, 0, 0.9999999999999999, -1.4210854715202004e-14, 0)"><path d=" M 71.00 503.00 C 71.00 500.67 71.00 498.33 71.00 496.00 C 70.79 498.13 70.79 500.81 71.00 503.00 Z"/></g><g fill="None" fill-opacity="0.0" stroke="#5E5F5E" stroke-opacity="1.00" stroke-width="0.3" transform="matrix(0.9999999999999999, 0, 0, 0.9999999999999999, -1.4210854715202004e-14, 0)"><path d=" M 164.00 569.00 C 173.33 569.00 182.67 569.00 192.00 569.00 C 191.96 569.00 192.00 568.00 192.00 568.00 C 182.66 568.00 172.64 568.16 164.00 569.00 Z"/></g><g fill="None" fill-opacity="0.0" stroke="#818282" stroke-opacity="1.00" stroke-width="0.3" transform="matrix(0.9999999999999999, 0, 0, 0.9999999999999999, -1.4210854715202004e-14, 0)"><path d=" M 192.00 569.00 C 197.40 569.00 203.29 568.46 208.00 568.00 C 202.67 568.00 197.33 568.00 192.00 568.00 C 192.00 568.00 191.96 569.00 192.00 569.00 Z"/></g><g fill="#0C0C0C" fill-opacity="1.00" stroke="None" transform="matrix(1, 0, 0, 1, 0.712403, 0.712403)"><path d=" M 777.00 559.00 C 779.33 514.99 777.34 468.83 778.00 424.00 C 774.27 424.71 768.53 423.06 765.00 424.00 C 761.47 424.94 755.78 422.06 753.00 424.00 C 753.00 469.00 753.00 514.00 753.00 559.00 C 759.03 556.18 771.63 562.76 777.00 559.00 Z"/></g><g fill="#090909" fill-opacity="1.00" stroke="None" transform="matrix(0.9999999999999999, 0, 0, 0.9999999999999999, -1.4210854715202004e-14, 0)"><path d=" M 812.00 425.00 C 794.26 421.67 788.18 447.03 806.00 451.00 C 823.82 454.97 828.93 428.18 812.00 425.00 Z"/></g><g fill="#0A0A0A" fill-opacity="1.00" stroke="None" transform="matrix(0.9999999999999999, 0, 0, 0.9999999999999999, -1.4210854715202004e-14, 0)"><path d=" M 71.00 496.00 C 71.00 498.33 71.00 500.67 71.00 503.00 C 71.00 525.31 81.33 541.10 98.25 555.75 C 115.16 570.41 141.83 569.00 164.00 569.00 C 172.64 568.16 182.66 568.00 192.00 568.00 C 197.33 568.00 202.67 568.00 208.00 568.00 C 232.81 568.00 261.52 569.20 278.75 550.75 C 295.99 532.31 304.89 509.31 299.98 486.02 C 295.06 462.74 284.96 445.37 263.08 434.92 C 241.19 424.48 204.62 431.21 180.00 430.00 C 155.38 428.79 121.08 426.31 101.25 439.25 C 81.41 452.18 71.00 473.45 71.00 496.00 M 89.00 502.00 C 88.75 499.43 88.69 496.54 89.00 494.00 C 89.72 457.84 126.63 440.95 159.00 446.00 C 191.37 451.05 239.86 435.48 265.25 457.75 C 290.63 480.03 290.24 518.41 264.25 540.25 C 238.26 562.08 191.06 547.12 158.00 552.00 C 124.94 556.88 89.00 538.71 89.00 502.00 Z"/></g><g fill="#0B0C0B" fill-opacity="1.00" stroke="None" transform="matrix(0.9999999999999999, 0, 0, 0.9999999999999999, -1.4210854715202004e-14, 0)"><path d=" M 416.00 430.00 C 382.00 430.00 348.00 430.00 314.00 430.00 C 314.00 437.33 314.00 444.67 314.00 452.00 C 326.67 452.00 339.33 452.00 352.00 452.00 C 352.00 487.67 352.00 523.33 352.00 559.00 C 360.67 559.00 369.33 559.00 378.00 559.00 C 378.00 523.33 378.00 487.67 378.00 452.00 C 390.67 452.00 403.33 452.00 416.00 452.00 C 416.00 444.67 416.00 437.33 416.00 430.00 Z"/></g><g fill="#878786" fill-opacity="1.00" stroke="None" transform="matrix(0.9999999999999999, 0, 0, 0.9999999999999999, -1.4210854715202004e-14, 0)"><path d=" M 137.00 458.00 C 139.63 457.90 142.37 457.86 145.00 458.00 C 142.23 457.55 139.81 457.60 137.00 458.00 Z"/></g><g fill="#0B0B0B" fill-opacity="1.00" stroke="None" transform="matrix(0.9999999999999999, 0, 0, 0.9999999999999999, -1.4210854715202004e-14, 0)"><path d=" M 100.00 495.00 C 99.89 497.30 99.92 499.69 100.00 502.00 C 101.21 537.45 145.64 552.46 169.75 528.75 C 193.87 505.04 179.31 459.86 145.00 458.00 C 142.37 457.86 139.63 457.90 137.00 458.00 C 117.74 458.74 100.95 475.90 100.00 495.00 Z"/></g><g fill="#747576" fill-opacity="1.00" stroke="None" transform="matrix(0.9999999999999999, 0, 0, 0.9999999999999999, -1.4210854715202004e-14, 0)"><path d=" M 453.00 461.00 C 455.65 460.95 458.35 460.90 461.00 461.00 C 458.32 460.62 455.71 460.67 453.00 461.00 Z"/></g><g fill="#0A0A0A" fill-opacity="1.00" stroke="None" transform="matrix(0.9999999999999999, 0, 0, 0.9999999999999999, -1.4210854715202004e-14, 0)"><path d=" M 594.00 473.00 C 576.67 454.49 545.15 456.14 528.92 474.92 C 512.68 493.70 512.80 525.45 529.25 543.75 C 545.70 562.06 578.13 563.80 593.00 544.00 C 596.52 555.89 590.77 572.44 578.69 577.69 C 566.62 582.95 549.01 581.08 545.00 567.00 C 537.00 567.00 529.00 567.00 521.00 567.00 C 522.31 593.65 552.96 605.65 576.93 600.93 C 600.89 596.20 619.29 578.88 618.00 552.00 C 616.71 525.12 618.97 489.66 618.00 462.00 C 610.00 462.00 602.00 462.00 594.00 462.00 C 594.00 465.67 594.00 469.33 594.00 473.00 M 573.00 481.00 C 607.04 486.53 596.99 543.70 563.00 537.00 C 529.01 530.30 539.22 475.52 573.00 481.00 Z"/></g><g fill="#0A0A0A" fill-opacity="1.00" stroke="None" transform="matrix(0.9999999999999999, 0, 0, 0.9999999999999999, -1.4210854715202004e-14, 0)"><path d=" M 709.00 473.00 C 691.78 454.18 660.26 456.33 643.92 474.92 C 627.58 493.51 627.73 525.53 644.25 543.75 C 660.77 561.98 693.10 563.63 708.00 544.00 C 711.42 555.81 705.66 572.42 693.69 577.69 C 681.73 582.97 663.95 580.94 660.00 567.00 C 652.00 567.00 644.00 567.00 636.00 567.00 C 637.82 593.34 667.88 605.50 691.78 600.78 C 715.68 596.05 734.32 579.03 733.00 552.00 C 731.68 524.97 733.99 489.77 733.00 462.00 C 725.00 462.00 717.00 462.00 709.00 462.00 C 709.00 465.67 709.00 469.33 709.00 473.00 M 686.00 481.00 C 720.09 484.45 714.34 540.38 680.00 537.00 C 645.66 533.62 651.18 477.48 686.00 481.00 Z"/></g><g fill="#7F7F7F" fill-opacity="1.00" stroke="None" transform="matrix(0.9999999999999999, 0, 0, 0.9999999999999999, -1.4210854715202004e-14, 0)"><path d=" M 883.00 461.00 C 885.00 460.97 887.00 460.97 889.00 461.00 C 887.15 460.81 884.91 460.81 883.00 461.00 Z"/></g><g fill="#0A0A0A" fill-opacity="1.00" stroke="None" transform="matrix(0.9999999999999999, 0, 0, 0.9999999999999999, -1.4210854715202004e-14, 0)"><path d=" M 461.00 461.00 C 458.35 460.90 455.65 460.95 453.00 461.00 C 414.39 461.77 394.25 507.53 413.70 538.30 C 433.15 569.07 479.86 569.14 499.25 538.25 C 518.63 507.35 499.62 462.47 461.00 461.00 M 464.00 482.00 C 496.56 488.74 484.36 548.65 450.78 539.22 C 417.20 529.79 428.21 474.59 464.00 482.00 Z"/></g><g fill="#0A0A0A" fill-opacity="1.00" stroke="None" transform="matrix(0.9999999999999999, 0, 0, 0.9999999999999999, -1.4210854715202004e-14, 0)"><path d=" M 889.00 461.00 C 887.00 460.97 885.00 460.97 883.00 461.00 C 844.51 461.52 823.25 506.61 842.23 537.77 C 861.21 568.93 908.67 569.68 928.70 538.70 C 948.72 507.71 927.75 461.53 889.00 461.00 M 893.00 482.00 C 926.39 487.98 912.52 550.33 878.93 539.07 C 845.34 527.82 857.87 475.70 893.00 482.00 Z"/></g><g fill="#090909" fill-opacity="1.00" stroke="None" transform="matrix(1, 0, 0, 1, 0.186867, 0)"><path d=" M 797.00 559.00 C 805.33 559.00 813.67 559.00 822.00 559.00 C 822.00 527.00 822.00 495.00 822.00 463.00 C 813.67 463.00 805.33 463.00 797.00 463.00 C 797.11 469.45 796.86 476.62 797.00 483.00 C 797.14 489.38 796.72 495.80 797.00 502.00 C 797.28 508.20 796.39 515.06 797.00 521.00 C 797.61 526.94 795.65 534.59 797.00 540.00 C 798.35 545.41 794.02 554.74 797.00 559.00 Z"/></g><g fill="#888788" fill-opacity="1.00" stroke="None" transform="matrix(0.9999999999999999, 0, 0, 0.9999999999999999, -1.4210854715202004e-14, 0)"><path d=" M 89.00 502.00 C 89.00 499.34 88.95 496.66 89.00 494.00 C 88.69 496.54 88.75 499.43 89.00 502.00 Z"/></g><g fill="#848484" fill-opacity="1.00" stroke="None" transform="matrix(0.9999999999999999, 0, 0, 0.9999999999999999, -1.4210854715202004e-14, 0)"><path d=" M 100.00 502.00 C 99.92 499.69 99.89 497.30 100.00 495.00 C 99.60 497.48 99.64 499.49 100.00 502.00 Z"/></g><g fill="#959595" fill-opacity="1.00" stroke="None" transform="matrix(0.9999999999999999, 0, 0, 0.9999999999999999, -1.4210854715202004e-14, 0)"><path d=" M 71.00 503.00 C 71.00 500.67 71.00 498.33 71.00 496.00 C 70.79 498.13 70.79 500.81 71.00 503.00 Z"/></g><g fill="#5E5F5E" fill-opacity="1.00" stroke="None" transform="matrix(0.9999999999999999, 0, 0, 0.9999999999999999, -1.4210854715202004e-14, 0)"><path d=" M 164.00 569.00 C 173.33 569.00 182.67 569.00 192.00 569.00 C 191.96 569.00 192.00 568.00 192.00 568.00 C 182.66 568.00 172.64 568.16 164.00 569.00 Z"/></g><g fill="#818282" fill-opacity="1.00" stroke="None" transform="matrix(0.9999999999999999, 0, 0, 0.9999999999999999, -1.4210854715202004e-14, 0)"><path d=" M 192.00 569.00 C 197.40 569.00 203.29 568.46 208.00 568.00 C 202.67 568.00 197.33 568.00 192.00 568.00 C 192.00 568.00 191.96 569.00 192.00 569.00 Z"/></g></svg>